<svg width="83" height="90" viewBox="0 0 83 90" fill="none" xmlns="http://www.w3.org/2000/svg">
<circle cx="37" cy="53" r="37" fill="#46A358" fill-opacity="0.13"/>
<g clip-path="url(#clip0_0_1)">
<path d="M22.249 40.7766C39.0217 39.0238 55.9384 41.7144 72.67 39.29C73.4516 39.1753 73.1184 37.9918 72.3409 38.1064C55.7286 40.5104 38.9065 37.8075 22.249 39.548C21.4673 39.6299 21.4591 40.8585 22.249 40.7766Z" fill="#727272"/>
<path d="M22.0846 39.5726C20.4472 40.0804 20.6529 42.21 21.521 43.3403C22.9444 45.1913 26.141 45.2323 28.2268 45.0357C29.0125 44.962 29.0166 43.7334 28.2268 43.8071C26.8774 43.9341 25.4786 43.9218 24.1663 43.5368C23.4833 43.3362 22.7634 43.0536 22.3726 42.4147C22.171 42.083 21.7843 40.9527 22.4137 40.7602C23.1707 40.5227 22.8457 39.3351 22.0846 39.5726Z" fill="#727272"/>
<path d="M69.7821 39.6748C70.6501 39.6216 71.4894 39.4742 72.3533 39.3595C73.7233 39.1752 74.4268 39.5438 74.6654 40.9771C74.8628 42.1689 74.11 42.517 73.0486 42.8528C72.5467 43.0125 72.0201 43.1108 71.5017 43.2132C70.1153 43.4834 68.7248 43.6186 67.3137 43.6677C66.5238 43.6964 66.5197 44.925 67.3137 44.8963C69.7204 44.8103 76.4796 44.7202 76.2164 40.9321C76.1505 39.9861 75.2331 38.6797 74.3733 38.2538C73.0897 37.6149 71.0903 38.3643 69.778 38.4462C68.9922 38.4954 68.9881 39.724 69.7821 39.6748Z" fill="#727272"/>
<path d="M24.055 44.7734C23.8864 47.3739 20.9243 48.8441 19.3527 50.6297C18.1186 52.0344 17.1477 53.652 16.4442 55.3761C14.9302 59.0701 14.6422 63.2104 15.4116 67.105C16.9954 75.0949 23.0594 81.6883 30.6333 84.5181C31.3779 84.7966 31.6988 83.609 30.9624 83.3346C23.0965 80.3942 16.9831 73.0268 16.3002 64.5782C15.9752 60.5648 16.8268 56.3876 19.0771 53.009C20.9449 50.2079 25.0547 48.4141 25.2892 44.7734C25.3386 43.9871 24.1044 43.9871 24.055 44.7734Z" fill="#727272"/>
<path d="M70.823 44.2493C70.823 47.4805 73.1803 49.5076 75.5787 51.3136C77.6398 52.8617 79.236 54.3687 80.2522 56.7972C81.1367 58.9063 81.6263 61.1833 81.7373 63.4643C82.1405 71.8556 77.2449 79.6448 69.7204 83.31C69.0087 83.6581 69.6299 84.7188 70.3416 84.3707C77.3313 80.9675 82.2598 74.0506 82.918 66.3024C83.2513 62.3832 82.5684 58.0668 80.569 54.6308C78.368 50.8427 72.0571 49.1063 72.053 44.2493C72.0571 43.4589 70.823 43.4589 70.823 44.2493Z" fill="#727272"/>
<path d="M30.267 83.6172C29.4689 85.3823 30.9006 86.9058 32.6778 86.9877C34.6073 87.0819 36.6437 86.6355 38.5773 86.5536C40.8194 86.4553 43.0615 86.4512 45.3036 86.4839C53.6715 86.6109 62.0352 87.2457 70.366 86.1154C70.6499 86.0785 70.7939 85.7673 70.8185 85.5215C70.8844 84.8335 70.8268 84.3257 70.6252 83.6787C70.3907 82.9251 69.2018 83.2487 69.4362 84.0063C69.6461 84.5018 69.6954 85.0096 69.5843 85.5215C69.7366 85.325 69.8847 85.1284 70.0369 84.9277C63.5409 85.8082 56.9873 85.5871 50.4543 85.3823C47.2866 85.284 44.1147 85.1939 40.9469 85.2472C39.4988 85.2717 38.0507 85.3291 36.6026 85.4274C35.8127 85.4806 35.0269 85.5543 34.2411 85.6321C33.6611 85.6895 30.4439 86.185 31.3284 84.2274C31.6534 83.519 30.592 82.8965 30.267 83.6172Z" fill="#727272"/>
<path d="M22.0803 51.2236C17.0531 57.3788 16.6622 65.9707 21.1753 72.5231C21.3974 72.8467 21.9322 72.5395 21.7101 72.2119C17.3616 65.9011 17.6619 57.604 22.5205 51.6536C22.7633 51.3546 22.3313 50.9165 22.0803 51.2236Z" fill="#727272"/>
<path d="M22.4136 74.8042C22.8167 75.3857 23.2775 75.9222 23.7918 76.4095C24.0797 76.6798 24.5158 76.2498 24.2278 75.9754C23.7506 75.5249 23.3228 75.0335 22.9443 74.497C22.7221 74.1735 22.1873 74.4765 22.4136 74.8042Z" fill="#727272"/>
<path d="M25.8652 78.3384C26.2643 78.3384 26.2643 77.7241 25.8652 77.7241C25.4662 77.7241 25.4662 78.3384 25.8652 78.3384Z" fill="#727272"/>
<path d="M69.6297 44.2821C69.3129 45.4615 69.0414 46.6492 69.5062 47.8286C69.9382 48.9221 70.8145 49.909 71.5591 50.8141C73.3446 52.9764 76.9978 55.1592 77.1706 58.1733C77.1912 58.5664 77.8083 58.5705 77.7877 58.1733C77.6602 55.9168 75.9899 54.4712 74.4512 53.0051C73.4598 52.059 72.5259 51.0557 71.6702 49.9827C71.0942 49.2579 70.4442 48.4921 70.111 47.6198C69.7037 46.5591 69.9382 45.5148 70.2221 44.45C70.3249 44.0651 69.7284 43.9012 69.6297 44.2821Z" fill="#727272"/>
<path d="M77.438 59.5985C77.5244 60.3848 77.6108 61.1711 77.6972 61.9574C77.7383 62.3464 78.3595 62.3505 78.3143 61.9574C78.2279 61.1711 78.1415 60.3848 78.0551 59.5985C78.014 59.2095 77.3969 59.2054 77.438 59.5985Z" fill="#727272"/>
<path d="M77.4956 63.575C77.5409 63.8043 77.5039 64.0214 77.4175 64.2343C77.3557 64.3899 77.4874 64.5701 77.6314 64.6111C77.8083 64.6602 77.9482 64.5497 78.0099 64.3981C78.1374 64.0787 78.1539 63.747 78.088 63.4112C78.0181 63.0262 77.4216 63.19 77.4956 63.575Z" fill="#727272"/>
<path d="M50.7423 59.0824C52.2151 56.2976 54.9879 54.4752 58.2091 54.6349C62.0434 54.8233 66.0751 58.1446 63.3887 62.0678C61.813 64.3653 58.9826 65.8519 56.8968 67.662C54.5806 69.6728 52.4619 71.8883 50.5078 74.2554C50.0059 74.8615 50.8739 75.7338 51.3799 75.1236C54.3585 71.5156 57.7278 68.4647 61.4304 65.6144C63.9029 63.706 66.6387 60.8106 65.1371 57.4566C63.8947 54.68 60.4636 53.3162 57.5715 53.3981C54.1651 53.4964 51.2442 55.4949 49.6726 58.4599C49.3065 59.1602 50.372 59.7827 50.7423 59.0824Z" fill="#727272"/>
<path d="M50.4504 58.1282C47.8133 55.1755 44.5222 52.1328 40.2518 52.3539C37.0841 52.5177 34.3565 54.9094 33.8999 58.0586C33.3362 61.8959 36.216 65.2622 39.0218 67.4859C42.4693 70.2175 47.6693 71.1635 50.2488 74.8656C50.6972 75.5127 51.7669 74.8984 51.3143 74.2473C49.7058 71.9375 47.3649 70.7499 44.8801 69.5541C41.7205 68.0347 38.6063 66.155 36.5739 63.2228C34.3071 59.9588 34.6815 54.9667 39.0752 53.7709C43.3744 52.6037 46.9947 56.1093 49.5741 58.9964C50.1048 59.5903 50.977 58.718 50.4504 58.1282Z" fill="#727272"/>
</g>
<g clip-path="url(#clip1_0_1)">
<path d="M46.472 12.629C45.2831 14.782 43.4689 16.507 41.1405 17.4C40.2314 17.7507 39.0343 17.7303 39.1536 16.4866C39.2276 15.7118 40.0668 15.039 40.6757 14.676C41.7123 14.0562 43.0411 13.8523 44.1559 13.3711C44.8799 13.0571 44.2547 12.001 43.5347 12.315C41.5437 13.1754 39.3634 13.3793 38.2321 15.4671C37.6274 16.5844 37.4299 18.1381 38.7916 18.7742C40.2684 19.4634 42.3006 18.3501 43.5265 17.5672C45.2296 16.4825 46.5666 15.0022 47.5333 13.2447C47.92 12.5556 46.8546 11.9357 46.472 12.629Z" fill="#46A358"/>
<path d="M43.8966 12.1192C42.3992 12.2823 40.9141 12.2904 39.429 12.0131C38.886 11.9112 38.3471 11.7725 37.8205 11.6054C37.3763 11.4749 36.9484 11.3158 36.5247 11.1242C35.8953 10.3331 35.957 9.89268 36.7181 9.79482C38.9477 8.0903 42.4321 9.88045 44.6206 10.7082C45.3652 10.9896 45.6861 9.80705 44.9497 9.52976C43.045 8.80799 40.9552 7.7233 38.8613 7.95573C37.6601 8.08622 34.8915 8.6041 34.5707 10.1007C33.8302 13.5668 42.1071 13.5423 43.8966 13.3466C44.6782 13.2569 44.6864 12.0335 43.8966 12.1192Z" fill="#46A358"/>
<path d="M45.353 9.5501C43.4812 8.07802 41.8192 5.7863 41.9097 3.30292C41.9509 2.19784 42.6584 1.7289 43.6828 2.22639C44.2463 2.4996 44.6372 3.1969 44.9457 3.72294C45.6615 4.95443 45.9618 6.36127 46.2251 7.74364C46.3732 8.51434 47.5621 8.18812 47.414 7.41742C47.019 5.35405 46.4554 3.20506 44.9169 1.66365C44.0078 0.754304 42.4939 -0.28961 41.4243 0.933727C38.9231 3.79226 42.1977 8.61629 44.4808 10.4146C45.0979 10.8999 45.9782 10.0394 45.353 9.5501Z" fill="#46A358"/>
<path d="M47.3849 7.756C47.6564 5.7905 48.5203 2.05117 50.7993 1.41503C52.9179 0.827829 52.7081 4.20424 52.1157 5.32156C51.5192 6.44703 50.3468 7.50317 49.4952 8.44514C48.9687 9.02827 49.8367 9.89684 50.3673 9.30964C51.5891 7.95581 53.4156 6.40217 53.6789 4.49784C53.8846 3.02168 53.7735 0.791129 52.1321 0.138682C50.6347 -0.456675 49.1538 0.897152 48.3022 1.96146C47.0475 3.52733 46.4634 5.46836 46.1919 7.42162C46.0849 8.20048 47.2738 8.53486 47.3849 7.756Z" fill="#46A358"/>
<path d="M50.4538 9.46471C51.8895 8.274 54.5552 7.4462 56.3077 8.51866C58.5785 9.91327 55.3615 10.7492 54.3002 10.8185C53.1648 10.896 52.0294 10.8267 50.9022 10.6962C50.1165 10.6065 50.1206 11.8298 50.9022 11.9195C52.7452 12.1316 55.234 12.4048 56.9494 11.4995C58.0149 10.9368 58.7801 9.57481 58.126 8.42895C57.3937 7.14445 55.3327 6.83454 53.9957 6.87124C52.3379 6.92017 50.8446 7.5563 49.5858 8.60022C48.9728 9.10587 49.8491 9.97036 50.4538 9.46471Z" fill="#46A358"/>
<path d="M50.5853 11.8786C51.8565 12.3435 53.1194 13.0449 53.8434 14.2274C54.7485 15.7117 54.769 18.4439 52.1362 17.9341C49.8202 17.4856 48.1459 15.0471 47.6728 12.9307C47.5 12.1641 46.3111 12.4862 46.4839 13.2569C46.9035 15.1408 47.9525 16.8046 49.524 17.9586C50.7581 18.8679 52.9261 19.9526 54.3782 18.921C55.8715 17.8607 55.8715 15.6669 55.1969 14.1581C54.3988 12.3802 52.6998 11.3485 50.9227 10.6961C50.1657 10.4269 49.8449 11.6095 50.5853 11.8786Z" fill="#46A358"/>
<path d="M38.1043 15.247C34.5007 17.4001 31.8432 19.7978 31.2137 24.1121C30.5267 28.7975 31.6251 33.6949 32.6289 38.258C32.7975 39.0287 33.9864 38.7024 33.8178 37.9317C32.9292 33.8947 32.02 29.7109 32.2957 25.5556C32.596 21.0252 34.9655 18.55 38.7214 16.3072C39.4043 15.8994 38.7872 14.8392 38.1043 15.247Z" fill="#46A358"/>
<path d="M54.008 13.8645C59.0474 14.2559 62.614 18.2685 63.9674 22.8642C65.4402 27.8676 64.6174 33.1361 63.8152 38.1763C63.6918 38.947 64.8807 39.2773 65.0041 38.5025C65.9421 32.5897 66.8841 26.3099 64.4611 20.6091C62.6263 16.2908 58.817 13.0163 54.008 12.6411C53.214 12.58 53.2181 13.8033 54.008 13.8645Z" fill="#46A358"/>
<path d="M39.3263 17.7833C33.2996 22.1302 35.2536 31.9577 36.4713 38.0662C36.6235 38.8369 37.8165 38.5107 37.6602 37.74C37.0226 34.543 36.4302 31.3093 36.4919 28.039C36.5536 24.8583 37.1583 20.8498 39.9475 18.8395C40.5851 18.3787 39.9721 17.3184 39.3263 17.7833Z" fill="#46A358"/>
<path d="M46.0931 13.8278C43.8511 17.2491 42.4031 21.074 41.8765 25.1273C41.6009 27.2519 41.5803 29.405 41.8354 31.5336C42.111 33.8579 42.8638 36.0925 43.1435 38.4169C43.234 39.1876 44.4723 39.1998 44.3777 38.4169C43.8922 34.3595 42.6417 30.6242 42.9708 26.473C43.3122 22.1628 44.7932 18.0605 47.1627 14.4435C47.5905 13.7829 46.5251 13.1713 46.0931 13.8278Z" fill="#46A358"/>
<path d="M49.1088 17.608C50.9477 20.6174 51.3344 24.0223 51.6552 27.4599C51.9885 31.0361 52.26 34.6164 52.4903 38.2008C52.5397 38.9838 53.7738 38.9878 53.7245 38.2008C53.4653 34.1434 53.1732 30.086 52.7536 26.0409C52.4245 22.8643 51.8692 19.7529 50.1743 16.9882C49.7629 16.3194 48.6933 16.9311 49.1088 17.608Z" fill="#46A358"/>
<path d="M54.724 18.1789C59.319 23.9082 59.4713 31.2237 59.3067 38.2049C59.2903 38.9919 60.5244 38.9919 60.5408 38.2049C60.7136 30.8404 60.4174 23.3291 55.5961 17.3144C55.1024 16.6986 54.2344 17.5713 54.724 18.1789Z" fill="#46A358"/>
<path d="M46.9532 19.6713C46.8833 19.9445 46.8174 20.2137 46.7475 20.4869C46.6529 20.8702 47.2453 21.0333 47.344 20.65C47.4139 20.3768 47.4798 20.1077 47.5497 19.8344C47.6443 19.4552 47.0519 19.2921 46.9532 19.6713Z" fill="#46A358"/>
<path d="M48.2861 21.7958C48.2861 22.1016 48.2861 22.4075 48.2861 22.7133C48.2861 23.1089 48.9032 23.1089 48.9032 22.7133C48.9032 22.4075 48.9032 22.1016 48.9032 21.7958C48.9032 21.4003 48.2861 21.4003 48.2861 21.7958Z" fill="#46A358"/>
<path d="M45.3074 23.7328C45.2745 24.1732 45.2375 24.6177 45.2046 25.0581C45.1758 25.4496 45.7929 25.4496 45.8217 25.0581C45.8546 24.6177 45.8916 24.1732 45.9245 23.7328C45.9533 23.3413 45.3362 23.3413 45.3074 23.7328Z" fill="#46A358"/>
<path d="M49.3145 25.8736C49.3145 26.2813 49.3145 26.6891 49.3145 27.0969C49.3145 27.4924 49.9315 27.4924 49.9315 27.0969C49.9315 26.6891 49.9315 26.2813 49.9315 25.8736C49.9315 25.478 49.3145 25.478 49.3145 25.8736Z" fill="#46A358"/>
<path d="M46.9487 28.1164C46.9487 28.5568 46.9487 29.0012 46.9487 29.4416C46.9487 29.8372 47.5658 29.8372 47.5658 29.4416C47.5658 29.0012 47.5658 28.5568 47.5658 28.1164C47.5658 27.7208 46.9487 27.7208 46.9487 28.1164Z" fill="#46A358"/>
<path d="M45.6118 32.602C45.6118 33.2136 45.6118 33.8253 45.6118 34.437C45.6118 34.8325 46.2289 34.8325 46.2289 34.437C46.2289 33.8253 46.2289 33.2136 46.2289 32.602C46.2289 32.2064 45.6118 32.2064 45.6118 32.602Z" fill="#46A358"/>
<path d="M43.7816 28.6017C43.8515 29.0094 43.9256 29.4172 43.9955 29.825C44.0613 30.2124 44.6578 30.0493 44.592 29.6619C44.522 29.2541 44.448 28.8463 44.3781 28.4385C44.3081 28.0552 43.7116 28.2183 43.7816 28.6017Z" fill="#46A358"/>
<path d="M48.4996 34.641C48.5325 35.0487 48.5696 35.4565 48.6025 35.8643C48.6354 36.2558 49.2525 36.2558 49.2196 35.8643C49.1866 35.4565 49.1496 35.0487 49.1167 34.641C49.0838 34.2495 48.4626 34.2454 48.4996 34.641Z" fill="#46A358"/>
<path d="M50.347 30.0533C50.3799 30.4611 50.4169 30.8689 50.4498 31.2766C50.4827 31.664 51.0998 31.6681 51.0669 31.2766C51.034 30.8689 50.9969 30.4611 50.964 30.0533C50.9311 29.6618 50.3141 29.6578 50.347 30.0533Z" fill="#46A358"/>
<path d="M57.4306 16.4011C57.9078 16.8129 58.385 17.2248 58.8622 17.6326C59.1625 17.8895 59.5986 17.4572 59.2982 17.2003C58.821 16.7885 58.3439 16.3766 57.8667 15.9688C57.5705 15.7119 57.1303 16.1401 57.4306 16.4011Z" fill="#46A358"/>
<path d="M57.6901 19.8059C57.9575 20.283 58.229 20.7642 58.4964 21.2413C58.6898 21.5838 59.2246 21.278 59.0312 20.9314C58.7638 20.4543 58.4923 19.9731 58.2249 19.496C58.0275 19.1534 57.4968 19.4634 57.6901 19.8059Z" fill="#46A358"/>
<path d="M60.1622 20.0056C60.4666 20.4174 60.771 20.8293 61.0754 21.2371C61.3058 21.5511 61.8447 21.2452 61.6102 20.9272C61.3058 20.5153 61.0014 20.1034 60.697 19.6957C60.4625 19.3858 59.9277 19.6875 60.1622 20.0056Z" fill="#46A358"/>
<path d="M61.6846 25.3395C61.7874 26.0531 61.8944 26.7667 61.9972 27.4803C62.0548 27.8677 62.6472 27.7046 62.5937 27.3172C62.4909 26.6036 62.3839 25.89 62.2811 25.1764C62.2194 24.789 61.627 24.9562 61.6846 25.3395Z" fill="#46A358"/>
<path d="M59.6114 23.5085C59.7142 23.8469 59.8171 24.1895 59.9199 24.5279C60.0351 24.9031 60.6275 24.744 60.5164 24.3648C60.4136 24.0263 60.3107 23.6838 60.2079 23.3453C60.0927 22.9702 59.4962 23.1292 59.6114 23.5085Z" fill="#46A358"/>
<path d="M62.8816 31.1748C62.9268 31.66 62.9186 32.1453 62.8404 32.6265C62.7787 33.0098 63.3711 33.177 63.4369 32.7896C63.5233 32.2513 63.5521 31.7171 63.5028 31.1748C63.4616 30.7874 62.8445 30.7833 62.8816 31.1748Z" fill="#46A358"/>
<path d="M61.4502 33.1116C61.4502 33.4868 61.4502 33.8578 61.4502 34.233C61.4502 34.6285 62.0673 34.6285 62.0673 34.233C62.0673 33.8578 62.0673 33.4868 62.0673 33.1116C62.0673 32.7161 61.4502 32.7161 61.4502 33.1116Z" fill="#46A358"/>
<path d="M62.0879 22.8929C62.2565 23.3007 62.4293 23.7085 62.598 24.1163C62.6638 24.2712 62.8037 24.3773 62.9764 24.3283C63.1204 24.2916 63.2562 24.104 63.1904 23.9532C63.0217 23.5454 62.8489 23.1376 62.6803 22.7298C62.6144 22.5749 62.4746 22.4688 62.3018 22.5178C62.1578 22.5545 62.0262 22.7421 62.0879 22.8929Z" fill="#46A358"/>
<path d="M60.9355 29.9513C60.9355 30.1878 60.9355 30.4284 60.9355 30.6649C60.9355 31.0605 61.5526 31.0605 61.5526 30.6649C61.5526 30.4284 61.5526 30.1878 61.5526 29.9513C61.5526 29.5558 60.9355 29.5558 60.9355 29.9513Z" fill="#46A358"/>
<path d="M62.1699 36.7817C62.1534 37.0712 62.0835 37.3485 61.9765 37.6177C61.9148 37.7726 62.0465 37.952 62.1905 37.9928C62.3673 38.0417 62.5072 37.9316 62.5689 37.7808C62.7006 37.4586 62.7664 37.1283 62.787 36.7817C62.8116 36.3862 62.1946 36.3902 62.1699 36.7817Z" fill="#46A358"/>
<path d="M36.2902 18.8843C36.0804 19.1861 35.8706 19.4879 35.6567 19.7896C35.4305 20.1158 35.9653 20.4217 36.1915 20.0995C36.4013 19.7978 36.6111 19.496 36.825 19.1943C37.0472 18.868 36.5124 18.5622 36.2902 18.8843Z" fill="#46A358"/>
<path d="M34.5295 23.3453C34.4513 23.7164 34.3772 24.0874 34.2991 24.4626C34.2209 24.8459 34.8133 25.0131 34.8956 24.6257C34.9737 24.2546 35.0478 23.8836 35.1259 23.5084C35.2041 23.1251 34.6076 22.962 34.5295 23.3453Z" fill="#46A358"/>
<path d="M34.332 21.1229C34.007 21.5511 33.7643 22.0241 33.5997 22.5338C33.4763 22.909 34.0728 23.068 34.1962 22.6969C34.3484 22.2361 34.5747 21.8202 34.8668 21.4328C35.1054 21.1148 34.5665 20.813 34.332 21.1229Z" fill="#46A358"/>
<path d="M33.0773 25.1803C33.0033 25.69 32.9251 26.1957 32.8511 26.7054C32.7935 27.0887 33.39 27.2559 33.4476 26.8685C33.5216 26.3588 33.5998 25.8531 33.6738 25.3434C33.7314 24.956 33.1349 24.7888 33.0773 25.1803Z" fill="#46A358"/>
<path d="M33.6944 28.1164C33.6409 28.6261 33.6739 29.1277 33.7726 29.6293C33.8466 30.0167 34.4431 29.8536 34.3691 29.4662C34.2827 29.0176 34.2662 28.569 34.3156 28.1164C34.3485 27.7249 33.7314 27.729 33.6944 28.1164Z" fill="#46A358"/>
<path d="M34.2003 31.9904C34.2332 32.2962 34.2702 32.6021 34.3032 32.9079C34.3196 33.071 34.4307 33.2137 34.6117 33.2137C34.7639 33.2137 34.9408 33.0751 34.9202 32.9079C34.8873 32.6021 34.8503 32.2962 34.8174 31.9904C34.8009 31.8273 34.6898 31.6846 34.5088 31.6846C34.3566 31.6846 34.1839 31.8232 34.2003 31.9904Z" fill="#46A358"/>
<path d="M33.2008 34.2902C33.4394 34.6776 33.6122 35.0854 33.7192 35.5298C33.8138 35.9132 34.4062 35.7501 34.3156 35.3667C34.1964 34.8774 33.9989 34.4125 33.7356 33.9803C33.5258 33.6459 32.9951 33.9558 33.2008 34.2902Z" fill="#46A358"/>
<path d="M34.5171 36.8634C34.587 37.0346 34.6528 37.2018 34.7228 37.3731C34.7845 37.524 34.9284 37.6341 35.1012 37.5851C35.2493 37.5444 35.381 37.3649 35.3151 37.21C35.2452 37.0387 35.1794 36.8715 35.1095 36.7002C35.0477 36.5494 34.9038 36.4393 34.731 36.4882C34.587 36.5249 34.4554 36.7084 34.5171 36.8634Z" fill="#46A358"/>
</g>
<defs>
<clipPath id="clip0_0_1">
<rect width="68" height="49" fill="white" transform="translate(15 38)"/>
</clipPath>
<clipPath id="clip1_0_1">
<rect width="35" height="39" fill="white" transform="translate(31)"/>
</clipPath>
</defs>
</svg>
